<?xml version="1.0" encoding="iso-8859-1"?>
<!-- Generator: Adobe Illustrator 19.0.0, SVG Export Plug-In . SVG Version: 6.00 Build 0)  -->
<svg version="1.1" id="Layer_1" xmlns="http://www.w3.org/2000/svg" xmlns:xlink="http://www.w3.org/1999/xlink" x="0px" y="0px"
	 viewBox="0 0 512 512" style="enable-background:new 0 0 512 512;" xml:space="preserve">
<g>
	<g>
		<g>
			<path d="M256,114.311c-78.127,0-141.689,63.562-141.689,141.689S177.873,397.689,256,397.689
				c78.126,0,141.688-63.562,141.688-141.689S334.126,114.311,256,114.311z M256,356.954c-55.666,0-100.954-45.288-100.954-100.954
				S200.334,155.046,256,155.046c55.665,0,100.953,45.288,100.953,100.954S311.665,356.954,256,356.954z"/>
			<path d="M256,97.005c11.248,0,20.368-9.119,20.368-20.368v-56.27C276.368,9.119,267.248,0,256,0s-20.368,9.119-20.368,20.368
				v56.27C235.632,87.886,244.752,97.005,256,97.005z"/>
			<path d="M382.828,149.54c5.213,0,10.425-1.988,14.401-5.966l39.79-39.79c7.954-7.954,7.954-20.85,0-28.804
				c-7.953-7.954-20.85-7.954-28.804,0l-39.79,39.79c-7.954,7.954-7.954,20.85,0,28.804
				C372.403,147.552,377.616,149.54,382.828,149.54z"/>
			<path d="M491.632,235.632h-56.27c-11.248,0-20.368,9.119-20.368,20.368s9.119,20.368,20.368,20.368h56.27
				c11.248,0,20.368-9.119,20.368-20.368S502.881,235.632,491.632,235.632z"/>
			<path d="M397.23,368.426c-7.953-7.954-20.85-7.953-28.804,0c-7.954,7.954-7.954,20.85,0,28.804l39.79,39.79
				c3.977,3.977,9.19,5.966,14.401,5.966c5.211,0,10.426-1.989,14.401-5.966c7.954-7.953,7.954-20.85,0-28.804L397.23,368.426z"/>
			<path d="M256,414.995c-11.248,0-20.368,9.119-20.368,20.368v56.27c0,11.248,9.119,20.368,20.368,20.368
				s20.368-9.119,20.368-20.368v-56.27C276.368,424.114,267.248,414.995,256,414.995z"/>
			<path d="M114.77,368.426l-39.79,39.79c-7.954,7.954-7.954,20.85,0,28.804c3.977,3.977,9.19,5.966,14.401,5.966
				s10.425-1.988,14.401-5.966l39.79-39.79c7.954-7.954,7.954-20.85,0-28.804C135.621,360.472,122.724,360.472,114.77,368.426z"/>
			<path d="M97.005,256c0-11.248-9.119-20.368-20.368-20.368h-56.27C9.119,235.632,0,244.752,0,256s9.119,20.368,20.368,20.368
				h56.27C87.886,276.368,97.005,267.248,97.005,256z"/>
			<path d="M114.77,143.574c3.977,3.977,9.19,5.966,14.403,5.966c5.211,0,10.425-1.989,14.401-5.965
				c7.954-7.954,7.954-20.85,0-28.804L103.786,74.98c-7.953-7.953-20.85-7.954-28.804,0s-7.954,20.85,0,28.804L114.77,143.574z"/>
		</g>
	</g>
</g>
<g>
</g>
<g>
</g>
<g>
</g>
<g>
</g>
<g>
</g>
<g>
</g>
<g>
</g>
<g>
</g>
<g>
</g>
<g>
</g>
<g>
</g>
<g>
</g>
<g>
</g>
<g>
</g>
<g>
</g>
</svg>
