<?xml version="1.0" encoding="utf-8"?>
<!-- Svg Vector Icons : http://www.onlinewebfonts.com/icon -->
<!DOCTYPE svg PUBLIC "-//W3C//DTD SVG 1.1//EN" "http://www.w3.org/Graphics/SVG/1.1/DTD/svg11.dtd">
<svg version="1.1" xmlns="http://www.w3.org/2000/svg" xmlns:xlink="http://www.w3.org/1999/xlink" x="0px" y="0px" viewBox="0 0 1000 1000" enable-background="new 0 0 1000 1000" xml:space="preserve">
<metadata> Svg Vector Icons : http://www.onlinewebfonts.com/icon </metadata>
<g><path d="M867.5,377.6c0-17,13.8-30.6,30.9-30.6h60.7c17.3,0,30.9,13.7,30.9,30.6c0,17-13.8,30.6-30.9,30.6h-60.7C881.1,408.2,867.5,394.5,867.5,377.6L867.5,377.6z M771.1,344.8C756.8,293,709.4,255,653.1,255c-28.2,0-54.1,9.5-74.8,25.5c12.6,13.4,23.9,28.1,33.7,43.9c17.9-5.3,36.9-8.1,56.5-8.1C706,316.3,741.1,326.7,771.1,344.8L771.1,344.8z M653.1,163.1c-17,0-30.6-13.8-30.6-30.9V71.6c0-17.3,13.7-30.9,30.6-30.9c17,0,30.6,13.8,30.6,30.9v60.7C683.7,149.6,670,163.1,653.1,163.1L653.1,163.1z M804.7,225.9c-12-12-11.9-31.4,0.2-43.5l42.9-42.9c12.2-12.2,31.5-12.2,43.5-0.2c12,12,11.9,31.4-0.2,43.5l-42.9,42.9C836,238,816.7,237.9,804.7,225.9L804.7,225.9z M460.6,591.9h131.2l-75,153.1h105.6L408.1,959.3l43.8-153.1h-74.4L460.6,591.9z M530.8,240.3c32.5-29,75.3-46.6,122.2-46.6c101.5,0,183.7,82.3,183.7,183.7c0,9.6-0.7,19.1-2.2,28.3c8.1,12.2,14.9,25.5,20.1,39.4c77.9,21.3,135.2,92.6,135.2,177.2c0,101.3-82.3,183.7-183.7,183.7H653.1l61.2-61.2h92c67.6,0,122.4-55,122.4-122.5c0-67.6-54.9-122.5-122.4-122.5h-0.9c-7.6-68.9-66-122.5-137-122.5c-32.4,0-62.1,11.2-85.7,29.9C556.1,319.2,474.3,255,377.5,255c-118.4,0-214.4,96-214.4,214.4c0,11.5,0.9,22.8,2.7,33.8c-54.2,12.7-94.5,61.4-94.5,119.3c0,67.6,54.9,122.5,122.4,122.5h141l-24.5,61.2H193.7C92.3,806.2,10,724,10,622.5c0-67.9,37-127.3,91.9-159.1c3.2-149.4,125.3-269.6,275.5-269.6C434.2,193.8,487,210.9,530.8,240.3L530.8,240.3z"/><path d="M867.5,377.6c0-17,13.8-30.6,30.9-30.6h60.7c17.3,0,30.9,13.7,30.9,30.6c0,17-13.8,30.6-30.9,30.6h-60.7C881.1,408.2,867.5,394.5,867.5,377.6L867.5,377.6z M771.1,344.8C756.8,293,709.4,255,653.1,255c-28.2,0-54.1,9.5-74.8,25.5c12.6,13.4,23.9,28.1,33.7,43.9c17.9-5.3,36.9-8.1,56.5-8.1C706,316.3,741.1,326.7,771.1,344.8L771.1,344.8z M653.1,163.1c-17,0-30.6-13.8-30.6-30.9V71.6c0-17.3,13.7-30.9,30.6-30.9c17,0,30.6,13.8,30.6,30.9v60.7C683.7,149.6,670,163.1,653.1,163.1L653.1,163.1z M804.7,225.9c-12-12-11.9-31.4,0.2-43.5l42.9-42.9c12.2-12.2,31.5-12.2,43.5-0.2c12,12,11.9,31.4-0.2,43.5l-42.9,42.9C836,238,816.7,237.9,804.7,225.9L804.7,225.9z M460.6,591.9h131.2l-75,153.1h105.6L408.1,959.3l43.8-153.1h-74.4L460.6,591.9z M530.8,240.3c32.5-29,75.3-46.6,122.2-46.6c101.5,0,183.7,82.3,183.7,183.7c0,9.6-0.7,19.1-2.2,28.3c8.1,12.2,14.9,25.5,20.1,39.4c77.9,21.3,135.2,92.6,135.2,177.2c0,101.3-82.3,183.7-183.7,183.7H653.1l61.2-61.2h92c67.6,0,122.4-55,122.4-122.5c0-67.6-54.9-122.5-122.4-122.5h-0.9c-7.6-68.9-66-122.5-137-122.5c-32.4,0-62.1,11.2-85.7,29.9C556.1,319.2,474.3,255,377.5,255c-118.4,0-214.4,96-214.4,214.4c0,11.5,0.9,22.8,2.7,33.8c-54.2,12.7-94.5,61.4-94.5,119.3c0,67.6,54.9,122.5,122.4,122.5h141l-24.5,61.2H193.7C92.3,806.2,10,724,10,622.5c0-67.9,37-127.3,91.9-159.1c3.2-149.4,125.3-269.6,275.5-269.6C434.2,193.8,487,210.9,530.8,240.3L530.8,240.3z"/></g>
</svg>